<svg fill="none" height="24" viewBox="0 0 24 24" width="24" xmlns="http://www.w3.org/2000/svg"><path d="m5.06107 20.0451-.44084.6067zm-1.10616-1.1062-.60676.4409zm16.09019 0-.6068-.4408zm-1.1062 1.1062-.4408-.6068zm0-16.09019-.4408.60677zm1.1062 1.10616-.6068.44084zm-14.98403-1.10616.44084.60677zm-1.10616 1.10616.60677.44084zm1.04853 14.77143-.74936-.0309-.00064.0155v.0154zm13.98706-.11.7496-.0256-.0005-.0128-.0008-.0129zm-3.7405-10.7225c0 1.7949-1.4551 3.25-3.25 3.25v1.5c2.6234 0 4.75-2.1266 4.75-4.75zm-3.25 3.25c-1.7949 0-3.25-1.4551-3.25-3.25h-1.5c0 2.6234 2.12665 4.75 4.75 4.75zm-3.25-3.25c0-1.79493 1.4551-3.25 3.25-3.25v-1.5c-2.62335 0-4.75 2.12665-4.75 4.75zm3.25-3.25c1.7949 0 3.25 1.45507 3.25 3.25h1.5c0-2.62335-2.1266-4.75-4.75-4.75zm0 14.5c-1.8916 0-3.25001-.001-4.30196-.115-1.03791-.1125-1.68812-.3276-2.19613-.6967l-.88168 1.2135c.80633.5859 1.75071.8482 2.91625.9745 1.1515.1247 2.60532.1237 4.46352.1237zm-9.75-8.25c0 1.8582-.00103 3.312.12373 4.4635.12628 1.1656.38859 2.1099.97442 2.9163l1.21353-.8817c-.36909-.508-.58423-1.1582-.69668-2.1961-.11397-1.052-.115-2.4104-.115-4.302zm18 0c0 1.8916-.001 3.25-.115 4.302-.1125 1.0379-.3276 1.6881-.6967 2.1961l1.2135.8817c.5859-.8064.8482-1.7507.9745-2.9163.1247-1.1515.1237-2.6053.1237-4.4635zm-8.25 9.75c1.8582 0 3.312.001 4.4635-.1237 1.1656-.1263 2.1099-.3886 2.9163-.9745l-.8817-1.2135c-.508.3691-1.1582.5842-2.1961.6967-1.052.114-2.4104.115-4.302.115zm0-18c1.8916 0 3.25.00103 4.302.115 1.0379.11245 1.6881.32759 2.1961.69668l.8817-1.21353c-.8064-.58583-1.7507-.84814-2.9163-.97442-1.1515-.12476-2.6053-.12373-4.4635-.12373zm9.75 8.25c0-1.8582.001-3.31202-.1237-4.46352-.1263-1.16554-.3886-2.10992-.9745-2.91625l-1.2135.88168c.3691.50801.5842 1.15822.6967 2.19613.114 1.05195.115 2.41036.115 4.30196zm-3.2519-7.43832c.3608.26214.6781.57943.9402.94023l1.2135-.88168c-.3546-.48814-.7839-.91742-1.272-1.27208zm-6.4981-2.31168c-1.8582 0-3.31202-.00103-4.46352.12373-1.16554.12628-2.10992.38859-2.91625.97442l.88168 1.21353c.50801-.36909 1.15822-.58423 2.19613-.69668 1.05195-.11397 2.41036-.115 4.30196-.115zm-8.25 9.75c0-1.8916.00103-3.25001.115-4.30196.11245-1.03791.32759-1.68812.69668-2.19613l-1.21353-.88168c-.58583.80633-.84814 1.75071-.97442 2.91625-.12476 1.1515-.12373 2.60532-.12373 4.46352zm.87023-8.65185c-.48814.35466-.91742.78394-1.27208 1.27208l1.21353.88168c.26214-.3608.57943-.67809.94023-.94023zm4.37977 13.40185h6v-1.5h-6zm0-1.5c-2.5569 0-4.64163 2.02-4.74592 4.5516l1.49873.0618c.07132-1.7313 1.49804-3.1134 3.24719-3.1134zm-3.49809 4.1883c-.01641-.0119-.03274-.0239-.04898-.0361l-.89897 1.2008c.02196.0164.04405.0327.06627.0488zm-.04898-.0361c-.34058-.255-.64104-.5597-.89125-.9041l-1.21353.8817c.33852.4659.74502.8782 1.20581 1.2232zm-1.19949.4303v.1701h1.5v-.1701zm10.74656-3.0825c1.7188 0 3.1265 1.3348 3.2423 3.0238l1.4965-.1026c-.1693-2.4703-2.2259-4.4212-4.7388-4.4212zm4.4383 1.7481c-.2495.3434-.5489.6474-.8883.9019l.9 1.2c.4592-.3444.8643-.7556 1.2018-1.2202zm-.8883.9019c-.0172.0129-.0345.0257-.0519.0383l.8817 1.2135c.0235-.0171.0469-.0343.0702-.0518zm-.309.3481.0094.2775 1.4992-.0512-.0095-.2775z" fill="#2d264b"/></svg>