<svg width="32" height="32" viewBox="0 0 32 32" fill="none" xmlns="http://www.w3.org/2000/svg">
<path d="M14.7998 30.3334H9.19984C3.9865 30.3334 1.6665 28.0134 1.6665 22.8V17.2C1.6665 11.9867 3.9865 9.66669 9.19984 9.66669H14.7998C20.0132 9.66669 22.3332 11.9867 22.3332 17.2V22.8C22.3332 28.0134 20.0132 30.3334 14.7998 30.3334ZM9.19984 11.6667C5.0665 11.6667 3.6665 13.0667 3.6665 17.2V22.8C3.6665 26.9334 5.0665 28.3334 9.19984 28.3334H14.7998C18.9332 28.3334 20.3332 26.9334 20.3332 22.8V17.2C20.3332 13.0667 18.9332 11.6667 14.7998 11.6667H9.19984Z" fill="#121111"/>
<path d="M22.7998 22.3334H21.3332C20.7865 22.3334 20.3332 21.88 20.3332 21.3334V17.2C20.3332 13.0667 18.9332 11.6667 14.7998 11.6667H10.6665C10.1198 11.6667 9.6665 11.2134 9.6665 10.6667V9.20002C9.6665 3.98669 11.9865 1.66669 17.1998 1.66669H22.7998C28.0132 1.66669 30.3332 3.98669 30.3332 9.20002V14.8C30.3332 20.0134 28.0132 22.3334 22.7998 22.3334ZM22.3332 20.3334H22.7998C26.9332 20.3334 28.3332 18.9334 28.3332 14.8V9.20002C28.3332 5.06669 26.9332 3.66669 22.7998 3.66669H17.1998C13.0665 3.66669 11.6665 5.06669 11.6665 9.20002V9.66669H14.7998C20.0132 9.66669 22.3332 11.9867 22.3332 17.2V20.3334Z" fill="#121111"/>
</svg>
