<svg width="64" height="65" viewBox="0 0 64 65" fill="none" xmlns="http://www.w3.org/2000/svg">
<rect y="0.914642" width="64" height="64" rx="32" fill="#4A90E2"/>
<path d="M25.4189 34.1728H21.4103L21.3888 31.8362H24.7008C25.2867 31.8362 25.7619 31.7647 26.1263 31.6218C26.4979 31.4789 26.7694 31.2717 26.9409 31.0002C27.1124 30.7215 27.1982 30.3785 27.1982 29.9712C27.1982 29.5067 27.1124 29.1316 26.9409 28.8458C26.7694 28.5599 26.4979 28.3527 26.1263 28.2241C25.7619 28.0883 25.2903 28.0204 24.7115 28.0204H22.675V40.9146H19.1808V25.3087H24.7115C25.6476 25.3087 26.4836 25.3944 27.2196 25.5659C27.9556 25.7374 28.5808 26.0018 29.0953 26.3591C29.6169 26.7164 30.0135 27.163 30.2851 27.6989C30.5566 28.2348 30.6924 28.8672 30.6924 29.596C30.6924 30.232 30.5494 30.8251 30.2636 31.3753C29.9849 31.9255 29.5348 32.3721 28.9131 32.7151C28.2914 33.0581 27.459 33.2439 26.4157 33.2724L25.4189 34.1728ZM25.2796 40.9146H20.5206L21.7854 38.2136H25.2796C25.8155 38.2136 26.2514 38.1279 26.5872 37.9564C26.9231 37.7849 27.1696 37.5526 27.3268 37.2597C27.484 36.9667 27.5626 36.638 27.5626 36.2736C27.5626 35.8449 27.4876 35.4733 27.3375 35.1589C27.1946 34.8445 26.9659 34.6015 26.6515 34.43C26.3443 34.2585 25.9334 34.1728 25.4189 34.1728H22.2892L22.3106 31.8362H26.1371L26.9516 32.758C27.9449 32.7365 28.738 32.8973 29.3311 33.2403C29.9314 33.5761 30.3637 34.0192 30.628 34.5694C30.8924 35.1196 31.0246 35.7019 31.0246 36.3165C31.0246 37.3311 30.8067 38.1815 30.3708 38.8674C29.9349 39.5463 29.2883 40.0572 28.4308 40.4002C27.5805 40.7431 26.5301 40.9146 25.2796 40.9146ZM39.5243 34.1728H35.5156L35.4942 31.8362H38.8062C39.3921 31.8362 39.8673 31.7647 40.2317 31.6218C40.6033 31.4789 40.8748 31.2717 41.0463 31.0002C41.2178 30.7215 41.3035 30.3785 41.3035 29.9712C41.3035 29.5067 41.2178 29.1316 41.0463 28.8458C40.8748 28.5599 40.6033 28.3527 40.2317 28.2241C39.8673 28.0883 39.3957 28.0204 38.8169 28.0204H36.7804V40.9146H33.2862V25.3087H38.8169C39.753 25.3087 40.589 25.3944 41.325 25.5659C42.061 25.7374 42.6862 26.0018 43.2007 26.3591C43.7223 26.7164 44.1189 27.163 44.3904 27.6989C44.662 28.2348 44.7977 28.8672 44.7977 29.596C44.7977 30.232 44.6548 30.8251 44.369 31.3753C44.0903 31.9255 43.6401 32.3721 43.0185 32.7151C42.3968 33.0581 41.5644 33.2439 40.5211 33.2724L39.5243 34.1728ZM39.385 40.9146H34.626L35.8908 38.2136H39.385C39.9209 38.2136 40.3568 38.1279 40.6926 37.9564C41.0284 37.7849 41.275 37.5526 41.4322 37.2597C41.5894 36.9667 41.668 36.638 41.668 36.2736C41.668 35.8449 41.5929 35.4733 41.4429 35.1589C41.3 34.8445 41.0713 34.6015 40.7569 34.43C40.4496 34.2585 40.0388 34.1728 39.5243 34.1728H36.3945L36.416 31.8362H40.2424L41.057 32.758C42.0503 32.7365 42.8434 32.8973 43.4365 33.2403C44.0367 33.5761 44.469 34.0192 44.7334 34.5694C44.9978 35.1196 45.13 35.7019 45.13 36.3165C45.13 37.3311 44.9121 38.1815 44.4762 38.8674C44.0403 39.5463 43.3936 40.0572 42.5362 40.4002C41.6858 40.7431 40.6354 40.9146 39.385 40.9146Z" fill="#002855"/>
</svg>
