<svg width="32" height="33" viewBox="0 0 32 33" fill="none" xmlns="http://www.w3.org/2000/svg">
<path d="M10.6665 8.49585C10.1198 8.49585 9.6665 8.04252 9.6665 7.49585V3.49585C9.6665 2.94918 10.1198 2.49585 10.6665 2.49585C11.2132 2.49585 11.6665 2.94918 11.6665 3.49585V7.49585C11.6665 8.04252 11.2132 8.49585 10.6665 8.49585Z" fill="white"/>
<path d="M21.3335 8.49585C20.7868 8.49585 20.3335 8.04252 20.3335 7.49585V3.49585C20.3335 2.94918 20.7868 2.49585 21.3335 2.49585C21.8802 2.49585 22.3335 2.94918 22.3335 3.49585V7.49585C22.3335 8.04252 21.8802 8.49585 21.3335 8.49585Z" fill="white"/>
<path d="M20.0002 19.1624H9.3335C8.78683 19.1624 8.3335 18.709 8.3335 18.1624C8.3335 17.6157 8.78683 17.1624 9.3335 17.1624H20.0002C20.5468 17.1624 21.0002 17.6157 21.0002 18.1624C21.0002 18.709 20.5468 19.1624 20.0002 19.1624Z" fill="white"/>
<path d="M16.0002 24.4958H9.3335C8.78683 24.4958 8.3335 24.0425 8.3335 23.4958C8.3335 22.9492 8.78683 22.4958 9.3335 22.4958H16.0002C16.5468 22.4958 17.0002 22.9492 17.0002 23.4958C17.0002 24.0425 16.5468 24.4958 16.0002 24.4958Z" fill="white"/>
<path d="M20 31.1625H12C4.50667 31.1625 3 27.6292 3 21.9225V13.6958C3 7.37585 5.13333 4.80252 10.6133 4.49585H21.3333C21.3467 4.49585 21.3733 4.49585 21.3867 4.49585C26.8667 4.80252 29 7.37585 29 13.6958V21.9225C29 27.6292 27.4933 31.1625 20 31.1625ZM10.6667 6.49585C6.93333 6.70918 5 7.88252 5 13.6958V21.9225C5 27.0292 5.97333 29.1625 12 29.1625H20C26.0267 29.1625 27 27.0292 27 21.9225V13.6958C27 7.89585 25.08 6.70918 21.3067 6.49585H10.6667Z" fill="white"/>
</svg>
