<svg width="33" height="32" viewBox="0 0 33 32" fill="none" xmlns="http://www.w3.org/2000/svg">
<path d="M13.1403 27.5868C12.4736 27.5868 12.007 27.3601 11.727 27.1468C11.1936 26.7601 10.367 25.7601 10.887 23.5201L11.6469 20.2401C11.7136 19.9601 11.5669 19.4534 11.3669 19.2401L8.71363 16.5868C7.31363 15.1868 7.43362 13.9735 7.62028 13.3735C7.80695 12.7735 8.42028 11.7201 10.3669 11.3868L13.767 10.8268C14.0203 10.7868 14.4336 10.4801 14.5403 10.2535L16.4203 6.49345C17.327 4.68012 18.527 4.41345 19.167 4.41345C19.807 4.41345 21.007 4.68012 21.9136 6.49345L23.7936 10.2535C23.9136 10.4801 24.3136 10.7868 24.5669 10.8268L27.967 11.3868C29.9136 11.7068 30.527 12.7735 30.7136 13.3735C30.9003 13.9735 31.0203 15.1868 29.6203 16.5868L26.967 19.2401C26.767 19.4401 26.6203 19.9601 26.687 20.2401L27.4469 23.5201C27.9669 25.7735 27.1403 26.7601 26.6069 27.1468C26.0736 27.5335 24.887 28.0268 22.887 26.8401L19.7003 24.9468C19.4336 24.7868 18.8736 24.7868 18.6069 24.9468L15.4203 26.8401C14.5003 27.4001 13.727 27.5868 13.1403 27.5868ZM19.167 6.41345C18.9536 6.41345 18.567 6.66678 18.207 7.38678L16.3269 11.1468C15.9269 11.9601 14.9803 12.6535 14.087 12.8001L10.687 13.3601C9.92697 13.4935 9.5803 13.7735 9.51363 13.9868C9.44697 14.2001 9.56694 14.6268 10.1136 15.1735L12.767 17.8268C13.447 18.5068 13.807 19.7468 13.5936 20.6801L12.8336 23.9601C12.607 24.9068 12.7536 25.4134 12.9003 25.5334C13.0469 25.6401 13.5803 25.6268 14.4069 25.1201L17.6069 23.2268C18.5003 22.6935 19.847 22.6935 20.727 23.2268L23.9136 25.1201C24.7536 25.6135 25.287 25.6401 25.4336 25.5334C25.5803 25.4268 25.727 24.9201 25.5003 23.9601L24.7403 20.6801C24.5269 19.7334 24.8736 18.5068 25.5669 17.8268L28.2203 15.1735C28.767 14.6268 28.8869 14.1868 28.8203 13.9868C28.7536 13.7868 28.4069 13.4935 27.6469 13.3601L24.247 12.8001C23.3536 12.6535 22.407 11.9601 22.007 11.1468L20.127 7.38678C19.767 6.66678 19.3803 6.41345 19.167 6.41345Z" fill="white"/>
<path d="M11.1666 7.66663H3.16663C2.61996 7.66663 2.16663 7.21329 2.16663 6.66663C2.16663 6.11996 2.61996 5.66663 3.16663 5.66663H11.1666C11.7133 5.66663 12.1666 6.11996 12.1666 6.66663C12.1666 7.21329 11.7133 7.66663 11.1666 7.66663Z" fill="white"/>
<path d="M7.16663 26.3334H3.16663C2.61996 26.3334 2.16663 25.88 2.16663 25.3334C2.16663 24.7867 2.61996 24.3334 3.16663 24.3334H7.16663C7.71329 24.3334 8.16663 24.7867 8.16663 25.3334C8.16663 25.88 7.71329 26.3334 7.16663 26.3334Z" fill="white"/>
<path d="M4.49996 17H3.16663C2.61996 17 2.16663 16.5467 2.16663 16C2.16663 15.4533 2.61996 15 3.16663 15H4.49996C5.04663 15 5.49996 15.4533 5.49996 16C5.49996 16.5467 5.04663 17 4.49996 17Z" fill="white"/>
</svg>
