<svg width="32" height="32" viewBox="0 0 32 32" fill="none" xmlns="http://www.w3.org/2000/svg">
<path d="M27.9995 7H3.99951C3.45285 7 2.99951 6.54667 2.99951 6C2.99951 5.45333 3.45285 5 3.99951 5H27.9995C28.5462 5 28.9995 5.45333 28.9995 6C28.9995 6.54667 28.5462 7 27.9995 7Z" fill="#121111"/>
<path d="M16.6262 13.6667H3.99951C3.45285 13.6667 2.99951 13.2134 2.99951 12.6667C2.99951 12.12 3.45285 11.6667 3.99951 11.6667H16.6262C17.1728 11.6667 17.6262 12.12 17.6262 12.6667C17.6262 13.2134 17.1862 13.6667 16.6262 13.6667Z" fill="#121111"/>
<path d="M27.9995 20.3333H3.99951C3.45285 20.3333 2.99951 19.88 2.99951 19.3333C2.99951 18.7866 3.45285 18.3333 3.99951 18.3333H27.9995C28.5462 18.3333 28.9995 18.7866 28.9995 19.3333C28.9995 19.88 28.5462 20.3333 27.9995 20.3333Z" fill="#121111"/>
<path d="M16.6262 27H3.99951C3.45285 27 2.99951 26.5467 2.99951 26C2.99951 25.4533 3.45285 25 3.99951 25H16.6262C17.1728 25 17.6262 25.4533 17.6262 26C17.6262 26.5467 17.1862 27 16.6262 27Z" fill="#121111"/>
</svg>
